<svg viewBox="0 0 269.22 387.83" xmlns="http://www.w3.org/2000/svg" width="80" height="80"><path d="M196.42 371.4c.62-.32 1.24-.66 1.85-1l.18-.11c.45-.25.89-.52 1.33-.79l.52-.3c18.87-11.68 31.51-33.24 31.51-69.2 0-40.81-18.39-80-39.45-107.42 5.3-7.87 8.54-18.48 8.54-30.23 0-23.68-13.26-42.95-29.91-43.73h-2.3a3.23 3.23 0 00-.44 0l-.8.07-.48.06-1 .15-.69.14-.59.13-.66.17-.44.12a22.2 22.2 0 00-2.52.9l-.13.06c-7.19 3.08-13.28 9.79-17.21 18.61a55.16 55.16 0 00-4.12 14.45v.12a12.06 12.06 0 00-5-1.28h-.7a12.84 12.84 0 00-4.33 1.25 55.52 55.52 0 00-3.82-13.85v-.09c-4.52-10.53-12.08-18.16-21-20.41a21.55 21.55 0 00-2.64-.5h-.09l-1.14-.11h-2.54c-16.64.79-29.9 20.06-29.9 43.73 0 11.75 3.26 22.36 8.55 30.23C55.9 219.9 37.46 259.18 37.46 300c0 34.57 11.58 55.79 29.33 67.79 1.29.85 2.61 1.68 4 2.46.69.4 1.37.78 2.06 1.14 40.69 21.94 83 21.91 123.59 0z" fill="#fff"/><path d="M95.31 159.53c-5.13 2.78-7.37 8.29-9.09 5.16s-.6-11 4.54-13.81 12.3.48 14 3.65-4.33 2.18-9.45 5zM173.03 159.53c5.13 2.78 7.38 8.29 9.09 5.16s.61-11-4.54-13.81-12.34.48-14 3.65 4.27 2.18 9.45 5z" fill="#1d1d1b"/><path d="M133.97 179.05c-10.43 0-18.67 9.42-18.67.45s8.41-24.83 18.85-24.83 18.88 15.87 18.88 24.83-8.64-.45-19.06-.45z" fill="#e95b0b"/><path d="M133.76 181.69c4.17 0 8 1.11 8 3.29s-3.37 6.06-7.57 6.06-7.57-3.88-7.57-6.06 2.92-3.29 7.14-3.29z" fill="#e95b0b"/><g opacity="0.5" fill="#fff"><path d="M269.19 268c-1.37-42.46-25.25-67.07-33-87.32-13-34-26.8-61.77-47.91-78.67l-3.3-1.76c19.82 17.53 32.78 46.33 45 81.62 7.27 21 33.47 46.55 34.76 90.61v3.24a15.82 15.82 0 01-.07 1.81 5.37 5.37 0 01-.05.89c0 .66-.11 1.33-.17 2l-.06.69c-.09.9-.21 1.8-.33 2.73l-.12.79c-.1.68-.21 1.37-.33 2.06-.06.35-.12.71-.19 1.07-.12.64-.24 1.3-.38 1.95l-.21 1c-.2.92-.41 1.84-.64 2.77-.05.22-.11.44-.17.67-.21.83-.43 1.67-.67 2.52l-.33 1.16c-.2.66-.39 1.32-.6 2-.12.4-.25.81-.38 1.22-.24.72-.48 1.44-.73 2.17-.12.33-.23.66-.34 1-.36 1-.74 2-1.14 3-.14.36-.28.72-.43 1.08q-.42 1.06-.87 2.13c-.17.43-.36.85-.54 1.27l-.35.83c10.03-15.53 13.97-31.37 13.55-44.53zM12.55 310.26c-.23-.56-.46-1.13-.68-1.69s-.4-1-.59-1.49c-.25-.67-.49-1.32-.72-2s-.46-1.28-.68-1.92-.47-1.4-.7-2.1c-.15-.47-.29-.93-.43-1.4s-.35-1.16-.51-1.73-.27-.92-.39-1.37c-.18-.64-.34-1.28-.5-1.91-.1-.37-.2-.74-.28-1.11-.23-.94-.45-1.88-.65-2.81l-.21-1.08c-.13-.63-.25-1.26-.37-1.88-.06-.38-.13-.76-.19-1.13-.11-.65-.21-1.28-.3-1.92-.05-.3-.1-.62-.14-.92-.12-.91-.23-1.81-.32-2.69a2.6 2.6 0 00-.05-.62c-.07-.7-.12-1.39-.17-2.08v-.87a15.65 15.65 0 00-.07-1.82v-3.22c1.26-44 27.43-69.57 34.73-90.59 12.25-35.57 25.34-64.54 45.41-82.07l-3.26 1.78c-21.39 16.9-35.33 44.81-48.39 79.1C25.31 201 1.46 225.58.03 268c-.42 13 3.45 28.67 13.31 44.17l-.18-.43z"/></g><path d="M229.95 181.91c-12.19-35.29-25.15-64.09-45-81.62-5.43 7.93-28.33 12.22-50 12.22-22.22 0-45.54-4.52-50.21-12.67-20.07 17.53-33.16 46.5-45.41 82.07-7.3 21-33.47 46.55-34.78 90.61-.83 28.12 19.48 79.91 68.3 98.88-21.13-11.12-35.39-33-35.39-71.42 0-40.8 18.45-80.08 39.44-107.42-5.29-7.87-8.55-18.48-8.55-30.22 0-24.17 13.82-43.76 31-43.76 14.94 0 27.43 15.06 30.3 35.05a10.33 10.33 0 0110 0c2.86-20 15.36-35 30.28-35 17.13 0 31 19.59 31 43.76 0 11.74-3.25 22.35-8.55 30.22 21 27.39 39.42 66.57 39.42 107.39 0 38.37-14.38 60.34-35.38 71.42 48.51-19 69.1-70.76 68.29-98.88-1.29-44.08-27.49-69.61-34.76-90.63z" fill="#1d1d1b"/><path d="M183.83 94.84c0 7.83-22.08 14.19-49.35 14.19s-49.36-6.36-49.36-14.19L72.87 23.71l36.76 35.56L134.12 0l24.52 59.27 36.78-35.56z" fill="#f49b00"/><path d="M114.19 34.35l-10.37-16L96.03 38c5.83 5.65 10.7 10.34 11.92 11.54.56-1.4 3.08-7.48 6.24-15.19zM172.31 38l-7.84-19.69-10.44 16.04c3.2 7.74 5.71 13.79 6.27 15.2 1.28-1.17 6.14-5.89 12.01-11.55z" fill="#e74e0f"/></svg>